<svg xmlns="http://www.w3.org/2000/svg" xmlns:xlink="http://www.w3.org/1999/xlink" width="200" zoomAndPan="magnify" viewBox="0 0 150 44.999999" height="60" preserveAspectRatio="xMidYMid meet" version="1.0"><defs><g><g id="id1"/></g><clipPath id="id2"><path d="M 19.992188 14.855469 L 135.492188 14.855469 L 135.492188 44 L 19.992188 44 Z M 19.992188 14.855469 " clip-rule="nonzero"/></clipPath></defs><g fill="rgb(100%, 100%, 100%)" fill-opacity="1"><g transform="translate(1.948255, 21.523926)"><g><path d="M 3.0625 0.125 C 2.75 0.125 2.484375 0.0195312 2.265625 -0.1875 C 2.054688 -0.40625 1.953125 -0.671875 1.953125 -0.984375 L 1.953125 -11.609375 C 1.953125 -11.921875 2.054688 -12.1875 2.265625 -12.40625 C 2.484375 -12.632812 2.75 -12.75 3.0625 -12.75 C 3.382812 -12.75 3.65625 -12.632812 3.875 -12.40625 C 4.09375 -12.1875 4.203125 -11.921875 4.203125 -11.609375 L 4.203125 -10.59375 C 4.671875 -11.25 5.226562 -11.789062 5.875 -12.21875 C 6.53125 -12.65625 7.378906 -12.875 8.421875 -12.875 C 9.335938 -12.875 10.125 -12.625 10.78125 -12.125 C 11.445312 -11.632812 11.921875 -11.035156 12.203125 -10.328125 C 13.222656 -12.023438 14.738281 -12.875 16.75 -12.875 C 17.675781 -12.875 18.445312 -12.640625 19.0625 -12.171875 C 19.6875 -11.710938 20.144531 -11.117188 20.4375 -10.390625 C 20.738281 -9.671875 20.890625 -8.914062 20.890625 -8.125 L 20.890625 -0.984375 C 20.890625 -0.671875 20.773438 -0.40625 20.546875 -0.1875 C 20.328125 0.0195312 20.0625 0.125 19.75 0.125 C 19.4375 0.125 19.171875 0.0195312 18.953125 -0.1875 C 18.742188 -0.40625 18.640625 -0.671875 18.640625 -0.984375 L 18.640625 -7.671875 C 18.640625 -8.742188 18.445312 -9.53125 18.0625 -10.03125 C 17.6875 -10.539062 17.035156 -10.796875 16.109375 -10.796875 C 15.265625 -10.796875 14.566406 -10.578125 14.015625 -10.140625 C 13.460938 -9.703125 12.972656 -9.128906 12.546875 -8.421875 L 12.546875 -0.984375 C 12.546875 -0.671875 12.429688 -0.40625 12.203125 -0.1875 C 11.984375 0.0195312 11.71875 0.125 11.40625 0.125 C 11.09375 0.125 10.828125 0.0195312 10.609375 -0.1875 C 10.398438 -0.40625 10.296875 -0.671875 10.296875 -0.984375 L 10.296875 -7.671875 C 10.296875 -8.742188 10.101562 -9.53125 9.71875 -10.03125 C 9.34375 -10.539062 8.691406 -10.796875 7.765625 -10.796875 C 6.929688 -10.796875 6.234375 -10.578125 5.671875 -10.140625 C 5.117188 -9.703125 4.628906 -9.128906 4.203125 -8.421875 L 4.203125 -0.984375 C 4.203125 -0.671875 4.09375 -0.40625 3.875 -0.1875 C 3.65625 0.0195312 3.382812 0.125 3.0625 0.125 Z M 3.0625 0.125 "/></g></g></g><g fill="rgb(100%, 100%, 100%)" fill-opacity="1"><g transform="translate(28.50666, 21.523926)"><g><path d="M 4.78125 5.8125 C 4.476562 5.8125 4.222656 5.703125 4.015625 5.484375 C 3.816406 5.273438 3.71875 5.023438 3.71875 4.734375 C 3.71875 4.597656 3.738281 4.460938 3.78125 4.328125 L 5.390625 0.203125 L 0.75 -11.140625 C 0.675781 -11.304688 0.640625 -11.460938 0.640625 -11.609375 C 0.640625 -11.921875 0.742188 -12.1875 0.953125 -12.40625 C 1.171875 -12.632812 1.4375 -12.75 1.75 -12.75 C 1.988281 -12.75 2.203125 -12.679688 2.390625 -12.546875 C 2.578125 -12.410156 2.710938 -12.242188 2.796875 -12.046875 L 6.609375 -2.59375 L 10.5 -12 C 10.707031 -12.5 11.050781 -12.75 11.53125 -12.75 C 11.84375 -12.75 12.101562 -12.632812 12.3125 -12.40625 C 12.53125 -12.1875 12.640625 -11.921875 12.640625 -11.609375 C 12.640625 -11.460938 12.617188 -11.320312 12.578125 -11.1875 L 5.8125 5.046875 C 5.582031 5.554688 5.238281 5.8125 4.78125 5.8125 Z M 4.78125 5.8125 "/></g></g></g><g fill="rgb(100%, 100%, 100%)" fill-opacity="1"><g transform="translate(45.635317, 21.523926)"><g><path d="M 3.515625 0.125 C 3.203125 0.125 2.9375 0.0195312 2.71875 -0.1875 C 2.507812 -0.40625 2.40625 -0.671875 2.40625 -0.984375 L 2.40625 -16.140625 C 2.40625 -16.453125 2.507812 -16.71875 2.71875 -16.9375 C 2.9375 -17.164062 3.203125 -17.28125 3.515625 -17.28125 L 13.140625 -17.28125 C 13.441406 -17.28125 13.691406 -17.175781 13.890625 -16.96875 C 14.097656 -16.757812 14.203125 -16.507812 14.203125 -16.21875 C 14.203125 -15.914062 14.097656 -15.664062 13.890625 -15.46875 C 13.691406 -15.269531 13.441406 -15.171875 13.140625 -15.171875 L 4.65625 -15.171875 L 4.65625 -9.703125 L 12.28125 -9.703125 C 12.570312 -9.703125 12.820312 -9.597656 13.03125 -9.390625 C 13.238281 -9.179688 13.34375 -8.929688 13.34375 -8.640625 C 13.34375 -8.335938 13.238281 -8.085938 13.03125 -7.890625 C 12.820312 -7.691406 12.570312 -7.59375 12.28125 -7.59375 L 4.65625 -7.59375 L 4.65625 -0.984375 C 4.65625 -0.671875 4.539062 -0.40625 4.3125 -0.1875 C 4.09375 0.0195312 3.828125 0.125 3.515625 0.125 Z M 3.515625 0.125 "/></g></g></g><g fill="rgb(100%, 100%, 100%)" fill-opacity="1"><g transform="translate(64.521225, 21.523926)"><g><path d="M 3.0625 0.125 C 2.75 0.125 2.484375 0.0195312 2.265625 -0.1875 C 2.054688 -0.40625 1.953125 -0.671875 1.953125 -0.984375 L 1.953125 -17.046875 C 1.953125 -17.359375 2.054688 -17.625 2.265625 -17.84375 C 2.484375 -18.070312 2.75 -18.1875 3.0625 -18.1875 C 3.394531 -18.1875 3.664062 -18.078125 3.875 -17.859375 C 4.09375 -17.648438 4.203125 -17.378906 4.203125 -17.046875 L 4.203125 -0.984375 C 4.203125 -0.671875 4.09375 -0.40625 3.875 -0.1875 C 3.65625 0.0195312 3.382812 0.125 3.0625 0.125 Z M 3.0625 0.125 "/></g></g></g><g fill="rgb(100%, 100%, 100%)" fill-opacity="1"><g transform="translate(74.521885, 21.523926)"><g><path d="M 3.015625 -15.203125 C 2.671875 -15.203125 2.375 -15.320312 2.125 -15.5625 C 1.875 -15.8125 1.75 -16.109375 1.75 -16.453125 L 1.75 -16.5625 C 1.75 -16.90625 1.875 -17.195312 2.125 -17.4375 C 2.375 -17.6875 2.671875 -17.8125 3.015625 -17.8125 L 3.171875 -17.8125 C 3.515625 -17.8125 3.8125 -17.6875 4.0625 -17.4375 C 4.3125 -17.195312 4.4375 -16.90625 4.4375 -16.5625 L 4.4375 -16.453125 C 4.4375 -16.109375 4.3125 -15.8125 4.0625 -15.5625 C 3.8125 -15.320312 3.515625 -15.203125 3.171875 -15.203125 Z M 3.0625 0.125 C 2.75 0.125 2.484375 0.0195312 2.265625 -0.1875 C 2.054688 -0.40625 1.953125 -0.671875 1.953125 -0.984375 L 1.953125 -11.609375 C 1.953125 -11.921875 2.054688 -12.1875 2.265625 -12.40625 C 2.484375 -12.632812 2.75 -12.75 3.0625 -12.75 C 3.394531 -12.75 3.664062 -12.640625 3.875 -12.421875 C 4.09375 -12.210938 4.203125 -11.941406 4.203125 -11.609375 L 4.203125 -0.984375 C 4.203125 -0.671875 4.09375 -0.40625 3.875 -0.1875 C 3.65625 0.0195312 3.382812 0.125 3.0625 0.125 Z M 3.0625 0.125 "/></g></g></g><g fill="rgb(100%, 100%, 100%)" fill-opacity="1"><g transform="translate(84.522544, 21.523926)"><g><path d="M 7.84375 5.9375 C 6.882812 5.9375 5.914062 5.8125 4.9375 5.5625 C 3.96875 5.320312 3.171875 5.019531 2.546875 4.65625 C 2.253906 4.46875 2.109375 4.175781 2.109375 3.78125 C 2.109375 3.519531 2.203125 3.285156 2.390625 3.078125 C 2.578125 2.867188 2.8125 2.765625 3.09375 2.765625 C 3.226562 2.765625 3.378906 2.800781 3.546875 2.875 C 4.796875 3.5 6.15625 3.8125 7.625 3.8125 C 10.144531 3.8125 11.40625 2.46875 11.40625 -0.21875 L 11.40625 -1.875 C 10.238281 -0.625 8.828125 0 7.171875 0 C 6.203125 0 5.257812 -0.238281 4.34375 -0.71875 C 3.425781 -1.207031 2.671875 -1.9375 2.078125 -2.90625 C 1.484375 -3.875 1.1875 -5.050781 1.1875 -6.4375 C 1.1875 -7.820312 1.484375 -8.992188 2.078125 -9.953125 C 2.671875 -10.921875 3.425781 -11.648438 4.34375 -12.140625 C 5.257812 -12.628906 6.203125 -12.875 7.171875 -12.875 C 8.828125 -12.875 10.238281 -12.242188 11.40625 -10.984375 L 11.40625 -11.609375 C 11.40625 -11.921875 11.507812 -12.1875 11.71875 -12.40625 C 11.9375 -12.632812 12.207031 -12.75 12.53125 -12.75 C 12.84375 -12.75 13.109375 -12.632812 13.328125 -12.40625 C 13.546875 -12.1875 13.65625 -11.921875 13.65625 -11.609375 L 13.65625 -0.546875 C 13.65625 1.535156 13.148438 3.132812 12.140625 4.25 C 11.140625 5.375 9.707031 5.9375 7.84375 5.9375 Z M 7.640625 -2.046875 C 8.421875 -2.046875 9.109375 -2.210938 9.703125 -2.546875 C 10.296875 -2.878906 10.863281 -3.328125 11.40625 -3.890625 L 11.40625 -8.984375 C 10.863281 -9.546875 10.296875 -9.988281 9.703125 -10.3125 C 9.109375 -10.644531 8.421875 -10.8125 7.640625 -10.8125 C 6.410156 -10.8125 5.398438 -10.4375 4.609375 -9.6875 C 3.828125 -8.9375 3.4375 -7.851562 3.4375 -6.4375 C 3.4375 -5.019531 3.828125 -3.929688 4.609375 -3.171875 C 5.398438 -2.421875 6.410156 -2.046875 7.640625 -2.046875 Z M 7.640625 -2.046875 "/></g></g></g><g fill="rgb(100%, 100%, 100%)" fill-opacity="1"><g transform="translate(103.977705, 21.523926)"><g><path d="M 3.0625 0.125 C 2.75 0.125 2.484375 0.0195312 2.265625 -0.1875 C 2.054688 -0.40625 1.953125 -0.671875 1.953125 -0.984375 L 1.953125 -17.046875 C 1.953125 -17.359375 2.054688 -17.625 2.265625 -17.84375 C 2.484375 -18.070312 2.75 -18.1875 3.0625 -18.1875 C 3.382812 -18.1875 3.65625 -18.070312 3.875 -17.84375 C 4.09375 -17.625 4.203125 -17.359375 4.203125 -17.046875 L 4.203125 -10.59375 C 4.828125 -11.28125 5.503906 -11.832031 6.234375 -12.25 C 6.960938 -12.664062 7.820312 -12.875 8.8125 -12.875 C 9.71875 -12.875 10.503906 -12.65625 11.171875 -12.21875 C 11.835938 -11.789062 12.347656 -11.207031 12.703125 -10.46875 C 13.054688 -9.726562 13.234375 -8.910156 13.234375 -8.015625 L 13.234375 -0.984375 C 13.234375 -0.671875 13.125 -0.40625 12.90625 -0.1875 C 12.6875 0.0195312 12.421875 0.125 12.109375 0.125 C 11.785156 0.125 11.515625 0.0195312 11.296875 -0.1875 C 11.085938 -0.40625 10.984375 -0.671875 10.984375 -0.984375 L 10.984375 -7.765625 C 10.984375 -9.785156 10.078125 -10.796875 8.265625 -10.796875 C 7.441406 -10.796875 6.703125 -10.578125 6.046875 -10.140625 C 5.398438 -9.710938 4.785156 -9.140625 4.203125 -8.421875 L 4.203125 -0.984375 C 4.203125 -0.671875 4.09375 -0.40625 3.875 -0.1875 C 3.65625 0.0195312 3.382812 0.125 3.0625 0.125 Z M 3.0625 0.125 "/></g></g></g><g fill="rgb(100%, 100%, 100%)" fill-opacity="1"><g transform="translate(122.888367, 21.523926)"><g><path d="M 6.3125 0.25 C 3.90625 0.25 2.703125 -0.835938 2.703125 -3.015625 L 2.703125 -10.6875 L 0.9375 -10.6875 C 0.8125 -10.6875 0.703125 -10.734375 0.609375 -10.828125 C 0.515625 -10.921875 0.46875 -11.03125 0.46875 -11.15625 C 0.46875 -11.320312 0.539062 -11.460938 0.6875 -11.578125 L 4.0625 -14.875 C 4.207031 -15.019531 4.347656 -15.09375 4.484375 -15.09375 C 4.609375 -15.09375 4.71875 -15.039062 4.8125 -14.9375 C 4.90625 -14.84375 4.953125 -14.734375 4.953125 -14.609375 L 4.953125 -12.625 L 7.75 -12.625 C 8.03125 -12.625 8.257812 -12.53125 8.4375 -12.34375 C 8.625 -12.164062 8.71875 -11.9375 8.71875 -11.65625 C 8.71875 -11.394531 8.625 -11.164062 8.4375 -10.96875 C 8.257812 -10.78125 8.03125 -10.6875 7.75 -10.6875 L 4.953125 -10.6875 L 4.953125 -3.21875 C 4.953125 -2.570312 5.101562 -2.160156 5.40625 -1.984375 C 5.707031 -1.816406 6.09375 -1.734375 6.5625 -1.734375 C 6.882812 -1.734375 7.210938 -1.78125 7.546875 -1.875 C 7.609375 -1.894531 7.675781 -1.910156 7.75 -1.921875 C 7.832031 -1.941406 7.929688 -1.953125 8.046875 -1.953125 C 8.273438 -1.953125 8.476562 -1.863281 8.65625 -1.6875 C 8.84375 -1.519531 8.9375 -1.3125 8.9375 -1.0625 C 8.9375 -0.6875 8.742188 -0.398438 8.359375 -0.203125 C 7.722656 0.0976562 7.039062 0.25 6.3125 0.25 Z M 6.3125 0.25 "/></g></g></g><g fill="rgb(100%, 100%, 100%)" fill-opacity="1"><g transform="translate(136.180782, 21.523926)"><g><path d="M 6.03125 0.25 C 4.382812 0.25 2.882812 -0.117188 1.53125 -0.859375 C 1.25 -1.054688 1.109375 -1.332031 1.109375 -1.6875 C 1.109375 -1.945312 1.195312 -2.175781 1.375 -2.375 C 1.5625 -2.570312 1.796875 -2.671875 2.078125 -2.671875 C 2.222656 -2.671875 2.375 -2.640625 2.53125 -2.578125 C 3.050781 -2.347656 3.578125 -2.164062 4.109375 -2.03125 C 4.640625 -1.894531 5.234375 -1.828125 5.890625 -1.828125 C 7.722656 -1.828125 8.640625 -2.414062 8.640625 -3.59375 C 8.640625 -3.96875 8.425781 -4.253906 8 -4.453125 C 7.582031 -4.648438 6.894531 -4.875 5.9375 -5.125 C 4.96875 -5.351562 4.164062 -5.59375 3.53125 -5.84375 C 2.894531 -6.09375 2.347656 -6.46875 1.890625 -6.96875 C 1.441406 -7.46875 1.21875 -8.128906 1.21875 -8.953125 C 1.21875 -10.109375 1.632812 -11.050781 2.46875 -11.78125 C 3.300781 -12.507812 4.488281 -12.875 6.03125 -12.875 C 7.300781 -12.875 8.5 -12.664062 9.625 -12.25 C 9.851562 -12.1875 10.03125 -12.0625 10.15625 -11.875 C 10.28125 -11.695312 10.34375 -11.507812 10.34375 -11.3125 C 10.34375 -11.050781 10.25 -10.820312 10.0625 -10.625 C 9.875 -10.425781 9.640625 -10.328125 9.359375 -10.328125 C 9.273438 -10.328125 9.164062 -10.34375 9.03125 -10.375 C 8.070312 -10.664062 7.132812 -10.8125 6.21875 -10.8125 C 5.320312 -10.8125 4.617188 -10.648438 4.109375 -10.328125 C 3.609375 -10.003906 3.359375 -9.585938 3.359375 -9.078125 C 3.359375 -8.585938 3.585938 -8.222656 4.046875 -7.984375 C 4.515625 -7.753906 5.238281 -7.535156 6.21875 -7.328125 C 7.1875 -7.078125 7.972656 -6.832031 8.578125 -6.59375 C 9.191406 -6.351562 9.71875 -5.976562 10.15625 -5.46875 C 10.59375 -4.957031 10.8125 -4.273438 10.8125 -3.421875 C 10.8125 -2.359375 10.394531 -1.476562 9.5625 -0.78125 C 8.726562 -0.09375 7.550781 0.25 6.03125 0.25 Z M 6.03125 0.25 "/></g></g></g><g clip-path="url(#id2)"><path fill="rgb(100%, 100%, 100%)" d="M 133.375 27.867188 L 85.792969 33.054688 C 85.933594 32.214844 86.074219 31.511719 86.074219 30.8125 L 96.664062 28.847656 L 95.957031 28.425781 L 86.074219 29.6875 C 86.074219 25.34375 82.6875 21.695312 78.308594 21.277344 L 77.601562 14.964844 L 76.753906 21.277344 C 72.378906 21.695312 69.128906 25.203125 68.988281 29.6875 L 59.105469 28.425781 L 58.398438 28.847656 L 69.128906 30.8125 C 69.273438 31.511719 69.414062 32.214844 69.554688 33.054688 L 21.96875 27.867188 C 21.96875 27.867188 20.839844 27.585938 19.992188 28.707031 C 19.992188 28.707031 20.136719 29.6875 21.546875 29.828125 L 47.527344 33.753906 C 46.117188 34.738281 45.128906 36.417969 45.128906 38.382812 C 45.128906 41.46875 47.667969 43.992188 50.773438 43.992188 C 53.882812 43.992188 56.421875 41.46875 56.421875 38.382812 C 56.421875 37.121094 56 35.859375 55.292969 35.015625 L 71.671875 37.542969 C 73.226562 39.925781 75.34375 41.75 77.886719 41.75 C 80.285156 41.75 82.542969 39.925781 84.097656 37.542969 L 100.195312 34.878906 C 99.488281 35.859375 99.066406 36.980469 99.066406 38.242188 C 99.066406 41.328125 101.605469 43.851562 104.710938 43.851562 C 107.820312 43.851562 110.359375 41.328125 110.359375 38.242188 C 110.359375 36.417969 109.371094 34.738281 107.960938 33.613281 L 133.941406 29.6875 C 135.351562 29.546875 135.492188 28.566406 135.492188 28.566406 C 134.363281 27.585938 133.375 27.867188 133.375 27.867188 Z M 50.632812 42.027344 C 48.515625 42.027344 46.820312 40.347656 46.820312 38.242188 C 46.820312 36.140625 48.515625 34.457031 50.632812 34.457031 C 52.75 34.457031 54.445312 36.140625 54.445312 38.242188 C 54.304688 40.347656 52.609375 42.027344 50.632812 42.027344 Z M 77.886719 28.425781 L 71.390625 28.425781 C 71.390625 25.902344 74.496094 25.0625 74.496094 25.0625 L 80.851562 25.0625 C 80.851562 25.0625 83.957031 25.902344 83.957031 28.425781 Z M 108.382812 38.242188 C 108.382812 40.347656 106.691406 42.027344 104.570312 42.027344 C 102.453125 42.027344 100.757812 40.347656 100.757812 38.242188 C 100.757812 36.140625 102.453125 34.457031 104.570312 34.457031 C 106.691406 34.457031 108.382812 36.28125 108.382812 38.242188 Z M 108.382812 38.242188 " fill-opacity="1" fill-rule="nonzero"/></g></svg>