<svg width="155" height="40" viewBox="0 0 155 40" fill="none" xmlns="http://www.w3.org/2000/svg">
<path d="M151.833 18.1563L88.3906 25.0729C88.5781 23.9531 88.7656 23.0156 88.7656 22.0833L102.885 19.4635L101.943 18.901L88.7656 20.5833C88.7656 14.7917 84.25 9.92708 78.4115 9.36979L77.4688 0.953125L76.3385 9.36979C70.5052 9.92708 66.1719 14.6042 65.9844 20.5833L52.8073 18.901L51.8646 19.4635L66.1719 22.0833C66.3646 23.0156 66.5521 23.9531 66.7396 25.0729L3.29167 18.1563C3.29167 18.1563 1.78646 17.7813 0.65625 19.276C0.65625 19.276 0.848959 20.5833 2.72917 20.7708L37.3698 26.0052C35.4896 27.3177 34.1719 29.5573 34.1719 32.1771C34.1719 36.2917 37.5573 39.6563 41.6979 39.6563C45.8438 39.6563 49.2292 36.2917 49.2292 32.1771C49.2292 30.4948 48.6667 28.8125 47.724 27.6875L69.5625 31.0573C71.6354 34.2344 74.4583 36.6667 77.849 36.6667C81.0469 36.6667 84.0573 34.2344 86.1302 31.0573L107.594 27.5052C106.651 28.8125 106.089 30.3073 106.089 31.9896C106.089 36.1042 109.474 39.4688 113.615 39.4688C117.76 39.4688 121.146 36.1042 121.146 31.9896C121.146 29.5573 119.828 27.3177 117.948 25.8177L152.589 20.5833C154.469 20.3958 154.656 19.0885 154.656 19.0885C153.151 17.7813 151.833 18.1563 151.833 18.1563ZM41.5104 37.0365C38.6875 37.0365 36.4271 34.7969 36.4271 31.9896C36.4271 29.1875 38.6875 26.9427 41.5104 26.9427C44.3333 26.9427 46.5938 29.1875 46.5938 31.9896C46.4063 34.7969 44.1458 37.0365 41.5104 37.0365ZM77.849 18.901H69.1875C69.1875 15.5365 73.3281 14.4167 73.3281 14.4167H81.8021C81.8021 14.4167 85.9427 15.5365 85.9427 18.901H77.849ZM118.51 31.9896C118.51 34.7969 116.255 37.0365 113.427 37.0365C110.604 37.0365 108.344 34.7969 108.344 31.9896C108.344 29.1875 110.604 26.9427 113.427 26.9427C116.255 26.9427 118.51 29.375 118.51 31.9896Z" fill="#545454"/>
</svg>
