<svg width="143" height="16" viewBox="0 0 143 16" fill="none" xmlns="http://www.w3.org/2000/svg">
<path d="M4.03525 12.18C3.21525 12.18 2.45525 11.99 1.75525 11.61C1.05525 11.22 0.510254 10.675 0.120254 9.975L1.29025 8.85C1.59025 9.4 1.98025 9.82 2.46025 10.11C2.95025 10.4 3.47525 10.545 4.03525 10.545C4.59525 10.545 5.05025 10.4 5.40025 10.11C5.75025 9.82 5.92525 9.46 5.92525 9.03C5.92525 8.47 5.56025 7.995 4.83025 7.605C4.65025 7.515 4.27525 7.35 3.70525 7.11C3.10525 6.83 2.68025 6.62 2.43025 6.48C1.31025 5.81 0.750254 4.915 0.750254 3.795C0.750254 2.915 1.07025 2.185 1.71025 1.605C2.36025 1.015 3.20025 0.719999 4.23025 0.719999C5.63025 0.719999 6.75525 1.25 7.60525 2.31L6.54025 3.495C5.93025 2.735 5.16525 2.355 4.24525 2.355C3.75525 2.355 3.35525 2.48 3.04525 2.73C2.74525 2.97 2.59525 3.295 2.59525 3.705C2.59525 4.235 2.90525 4.675 3.52525 5.025C3.85525 5.205 4.27025 5.41 4.77025 5.64C5.35025 5.89 5.80525 6.11 6.13525 6.3C7.26525 6.92 7.83025 7.8 7.83025 8.94C7.83025 9.88 7.47525 10.66 6.76525 11.28C6.05525 11.88 5.14525 12.18 4.03525 12.18ZM10.3525 2.85C10.0325 2.85 9.76248 2.745 9.54248 2.535C9.32248 2.315 9.21248 2.045 9.21248 1.725C9.21248 1.415 9.32248 1.155 9.54248 0.944999C9.76248 0.735 10.0325 0.63 10.3525 0.63C10.6625 0.63 10.9225 0.735 11.1325 0.944999C11.3425 1.155 11.4475 1.415 11.4475 1.725C11.4475 2.045 11.3425 2.315 11.1325 2.535C10.9225 2.745 10.6625 2.85 10.3525 2.85ZM11.1475 3.915V12H9.49748V3.915H11.1475ZM19.6064 4.95V3.915H21.1964V11.175C21.1964 12.475 20.7964 13.51 19.9964 14.28C19.1964 15.05 18.1364 15.435 16.8164 15.435C15.4764 15.435 14.2714 15.05 13.2014 14.28L13.9214 13.005C14.8114 13.645 15.7664 13.965 16.7864 13.965C17.6364 13.965 18.3114 13.725 18.8114 13.245C19.3114 12.775 19.5614 12.16 19.5614 11.4V10.815C18.8514 11.615 17.9464 12.015 16.8464 12.015C15.6664 12.015 14.6964 11.62 13.9364 10.83C13.1764 10.04 12.7964 9.05 12.7964 7.86C12.7964 6.67 13.1914 5.685 13.9814 4.905C14.7714 4.115 15.7514 3.72 16.9214 3.72C17.9914 3.72 18.8864 4.13 19.6064 4.95ZM17.0564 10.545C17.8064 10.545 18.4264 10.29 18.9164 9.78C19.4064 9.28 19.6514 8.645 19.6514 7.875C19.6514 7.095 19.4064 6.46 18.9164 5.97C18.4164 5.47 17.7964 5.22 17.0564 5.22C16.3264 5.22 15.7114 5.475 15.2114 5.985C14.7214 6.475 14.4764 7.105 14.4764 7.875C14.4764 8.655 14.7214 9.295 15.2114 9.795C15.7114 10.295 16.3264 10.545 17.0564 10.545ZM24.9753 12H23.3253V3.915H24.9453V5.055C25.1853 4.635 25.5303 4.305 25.9803 4.065C26.4303 3.825 26.9403 3.705 27.5103 3.705C28.4003 3.705 29.1503 3.995 29.7603 4.575C30.3803 5.165 30.6903 6 30.6903 7.08V12H29.0253V7.545C29.0253 6.815 28.8503 6.25 28.5003 5.85C28.1503 5.44 27.6803 5.235 27.0903 5.235C26.4703 5.235 25.9603 5.455 25.5603 5.895C25.1703 6.325 24.9753 6.885 24.9753 7.575V12ZM37.291 2.85C36.971 2.85 36.701 2.745 36.481 2.535C36.261 2.315 36.151 2.045 36.151 1.725C36.151 1.415 36.261 1.155 36.481 0.944999C36.701 0.735 36.971 0.63 37.291 0.63C37.601 0.63 37.861 0.735 38.071 0.944999C38.281 1.155 38.386 1.415 38.386 1.725C38.386 2.045 38.281 2.315 38.071 2.535C37.861 2.745 37.601 2.85 37.291 2.85ZM38.086 3.915V12H36.436V3.915H38.086ZM41.8649 12H40.2149V3.915H41.8349V5.055C42.0749 4.635 42.4199 4.305 42.8699 4.065C43.3199 3.825 43.8299 3.705 44.3999 3.705C45.2899 3.705 46.0399 3.995 46.6499 4.575C47.2699 5.165 47.5799 6 47.5799 7.08V12H45.9149V7.545C45.9149 6.815 45.7399 6.25 45.3899 5.85C45.0399 5.44 44.5699 5.235 43.9799 5.235C43.3599 5.235 42.8499 5.455 42.4499 5.895C42.0599 6.325 41.8649 6.885 41.8649 7.575V12ZM56.5217 11.985H55.1117L52.3517 3.915H54.0917L55.9067 9.72L57.9917 3.915H59.1617L61.3067 9.72L63.0617 3.915H64.8017L62.0867 11.985H60.6767L58.5767 6.255L56.5217 11.985ZM66.9101 2.85C66.5901 2.85 66.3201 2.745 66.1001 2.535C65.8801 2.315 65.7701 2.045 65.7701 1.725C65.7701 1.415 65.8801 1.155 66.1001 0.944999C66.3201 0.735 66.5901 0.63 66.9101 0.63C67.2201 0.63 67.4801 0.735 67.6901 0.944999C67.9001 1.155 68.0051 1.415 68.0051 1.725C68.0051 2.045 67.9001 2.315 67.6901 2.535C67.4801 2.745 67.2201 2.85 66.9101 2.85ZM67.7051 3.915V12H66.0551V3.915H67.7051ZM74.724 10.23L75.294 11.52C74.694 11.97 73.949 12.195 73.059 12.195C72.189 12.195 71.529 11.93 71.079 11.4C70.629 10.87 70.404 10.105 70.404 9.105V5.325H69.009V3.915H70.419V1.05H72.054V3.915H74.844V5.325H72.054V9.135C72.054 10.165 72.469 10.68 73.299 10.68C73.739 10.68 74.214 10.53 74.724 10.23ZM78.0612 12H76.4112V0.63H78.0162V4.935C78.2562 4.555 78.6012 4.255 79.0512 4.035C79.5112 3.815 80.0212 3.705 80.5812 3.705C81.4712 3.705 82.2212 3.995 82.8312 4.575C83.4412 5.155 83.7462 5.99 83.7462 7.08V12H82.0962V7.545C82.0962 6.815 81.9212 6.25 81.5712 5.85C81.2212 5.44 80.7512 5.235 80.1612 5.235C79.5412 5.235 79.0362 5.45 78.6462 5.88C78.2562 6.31 78.0612 6.87 78.0612 7.56V12ZM94.8022 12.165C93.1622 12.165 91.7972 11.63 90.7072 10.56C89.6272 9.48 89.0872 8.115 89.0872 6.465C89.0872 4.805 89.6472 3.435 90.7672 2.355C91.8872 1.265 93.2572 0.719999 94.8772 0.719999C95.7872 0.719999 96.6472 0.9 97.4572 1.26C98.2772 1.61 98.9422 2.085 99.4522 2.685L98.2672 3.855C97.3872 2.885 96.2622 2.4 94.8922 2.4C93.7422 2.4 92.7822 2.785 92.0122 3.555C91.2422 4.325 90.8572 5.295 90.8572 6.465C90.8572 7.635 91.2372 8.6 91.9972 9.36C92.7572 10.12 93.7072 10.5 94.8472 10.5C95.4772 10.5 96.0922 10.375 96.6922 10.125C97.2922 9.865 97.8022 9.51 98.2222 9.06V7.08H94.7272V5.52H99.8272V9.87C98.4472 11.4 96.7722 12.165 94.8022 12.165ZM101.17 7.95C101.17 6.78 101.57 5.78 102.37 4.95C103.18 4.12 104.205 3.705 105.445 3.705C106.685 3.705 107.705 4.12 108.505 4.95C109.315 5.77 109.72 6.77 109.72 7.95C109.72 9.15 109.315 10.16 108.505 10.98C107.715 11.8 106.695 12.21 105.445 12.21C104.205 12.21 103.18 11.8 102.37 10.98C101.57 10.15 101.17 9.14 101.17 7.95ZM108.055 7.95C108.055 7.21 107.8 6.575 107.29 6.045C106.8 5.505 106.185 5.235 105.445 5.235C104.715 5.235 104.095 5.505 103.585 6.045C103.085 6.575 102.835 7.21 102.835 7.95C102.835 8.7 103.085 9.34 103.585 9.87C104.095 10.4 104.715 10.665 105.445 10.665C106.175 10.665 106.79 10.4 107.29 9.87C107.8 9.34 108.055 8.7 108.055 7.95ZM110.897 7.95C110.897 6.78 111.297 5.78 112.097 4.95C112.907 4.12 113.932 3.705 115.172 3.705C116.412 3.705 117.432 4.12 118.232 4.95C119.042 5.77 119.447 6.77 119.447 7.95C119.447 9.15 119.042 10.16 118.232 10.98C117.442 11.8 116.422 12.21 115.172 12.21C113.932 12.21 112.907 11.8 112.097 10.98C111.297 10.15 110.897 9.14 110.897 7.95ZM117.782 7.95C117.782 7.21 117.527 6.575 117.017 6.045C116.527 5.505 115.912 5.235 115.172 5.235C114.442 5.235 113.822 5.505 113.312 6.045C112.812 6.575 112.562 7.21 112.562 7.95C112.562 8.7 112.812 9.34 113.312 9.87C113.822 10.4 114.442 10.665 115.172 10.665C115.902 10.665 116.517 10.4 117.017 9.87C117.527 9.34 117.782 8.7 117.782 7.95ZM127.434 4.95V3.915H129.024V11.175C129.024 12.475 128.624 13.51 127.824 14.28C127.024 15.05 125.964 15.435 124.644 15.435C123.304 15.435 122.099 15.05 121.029 14.28L121.749 13.005C122.639 13.645 123.594 13.965 124.614 13.965C125.464 13.965 126.139 13.725 126.639 13.245C127.139 12.775 127.389 12.16 127.389 11.4V10.815C126.679 11.615 125.774 12.015 124.674 12.015C123.494 12.015 122.524 11.62 121.764 10.83C121.004 10.04 120.624 9.05 120.624 7.86C120.624 6.67 121.019 5.685 121.809 4.905C122.599 4.115 123.579 3.72 124.749 3.72C125.819 3.72 126.714 4.13 127.434 4.95ZM124.884 10.545C125.634 10.545 126.254 10.29 126.744 9.78C127.234 9.28 127.479 8.645 127.479 7.875C127.479 7.095 127.234 6.46 126.744 5.97C126.244 5.47 125.624 5.22 124.884 5.22C124.154 5.22 123.539 5.475 123.039 5.985C122.549 6.475 122.304 7.105 122.304 7.875C122.304 8.655 122.549 9.295 123.039 9.795C123.539 10.295 124.154 10.545 124.884 10.545ZM132.802 0.63V12H131.152V0.63H132.802ZM142.552 7.8C142.552 8.06 142.532 8.325 142.492 8.595H136.177C136.297 9.245 136.582 9.76 137.032 10.14C137.492 10.52 138.102 10.71 138.862 10.71C139.322 10.71 139.802 10.63 140.302 10.47C140.812 10.31 141.247 10.1 141.607 9.84L142.297 11.055C141.287 11.805 140.122 12.18 138.802 12.18C137.382 12.18 136.302 11.765 135.562 10.935C134.832 10.105 134.467 9.105 134.467 7.935C134.467 6.715 134.847 5.71 135.607 4.92C136.377 4.12 137.372 3.72 138.592 3.72C139.762 3.72 140.712 4.085 141.442 4.815C142.182 5.555 142.552 6.55 142.552 7.8ZM138.592 5.145C137.972 5.145 137.442 5.34 137.002 5.73C136.572 6.11 136.297 6.615 136.177 7.245H140.887C140.817 6.615 140.567 6.11 140.137 5.73C139.717 5.34 139.202 5.145 138.592 5.145Z" fill="#5F5F5F"/>
</svg>
